<mxfile host="app.diagrams.net" modified="2024-06-03T01:05:21.630Z" agent="Mozilla/5.0 (Windows NT 10.0; Win64; x64) AppleWebKit/537.36 (KHTML, like Gecko) Chrome/125.0.0.0 Safari/537.36" version="24.4.13" etag="8-NRNWeuejfmBUmJoyzN" type="github">
  <diagram name="Page-1" id="4kaVCHw1pt86Ml3Xlqw5">
    <mxGraphModel>
      <root>
        <mxCell id="0" />
        <mxCell id="1" parent="0" />
      </root>
    </mxGraphModel>
  </diagram>
</mxfile>
